Coordinates
version=1
nRows=5
nColumns=40
inDegrees=yes

Units are S.I. units (second, meters, Newtons, ...)
If the header above contains a line with 'inDegrees', this indicates whether rotational values are in degrees (yes) or radians (no).

endheader
time	pelvis_tilt	pelvis_list	pelvis_rotation	pelvis_tx	pelvis_ty	pelvis_tz	hip_flexion_r	hip_adduction_r	hip_rotation_r	knee_angle_r	knee_angle_r_beta	ankle_angle_r	subtalar_angle_r	mtp_angle_r	hip_flexion_l	hip_adduction_l	hip_rotation_l	knee_angle_l	knee_angle_l_beta	ankle_angle_l	subtalar_angle_l	mtp_angle_l	lumbar_extension	lumbar_bending	lumbar_rotation	arm_flex_r	arm_add_r	arm_rot_r	elbow_flex_r	pro_sup_r	wrist_flex_r	wrist_dev_r	arm_flex_l	arm_add_l	arm_rot_l	elbow_flex_l	pro_sup_l	wrist_flex_l	wrist_dev_l
      2.65000000	     -2.56875387	     -3.55541737	      3.87990716	      0.78230908	      1.05027363	     -0.48477790	     20.30748168	      3.38533803	      0.79559544	     26.43755493	      0.46142238	      4.89970558	      0.00000000	      0.00000000	     12.18324550	     -5.59781166	      5.95516393	     62.42284905	      1.08948424	    -13.21114409	      0.00000000	      0.00000000	     -5.50295463	      5.05721718	     -8.39267353	    -11.96289154	    -12.77088703	     -3.99868074	     35.56672668	     50.71290447	      0.00000000	      0.00000000	      1.74584457	    -13.67822774	     -0.97914756	     44.94743725	     51.49058919	      0.00000000	      0.00000000
      2.65833300	     -2.57333480	     -3.44962827	      3.79220101	      0.78188840	      1.05162729	     -0.48412132	     19.57737426	      3.35544815	      0.70566991	     26.27295467	      0.45854956	      5.24452323	      0.00000000	      0.00000000	     13.67145416	     -5.35105236	      5.98859745	     63.66669635	      1.11119348	    -11.91842660	      0.00000000	      0.00000000	     -5.55861425	      4.90468983	     -7.94705052	    -11.73465652	    -12.98034641	     -3.79630427	     36.38004132	     50.58808017	      0.00000000	      0.00000000	      1.74921612	    -13.58437841	     -0.71451204	     43.91325801	     51.69244236	      0.00000000	      0.00000000
      2.66666700	     -2.51624828	     -3.22047623	      3.70325438	      0.78136962	      1.05315992	     -0.48349978	     18.72539425	      3.22204477	      0.81956668	     26.01765244	      0.45409370	      5.63639972	      0.00000000	      0.00000000	     15.02616219	     -4.95406411	      6.00418721	     64.53273898	      1.12630877	    -11.26974314	      0.00000000	      0.00000000	     -5.73380638	      4.61385682	     -7.63629107	    -11.31466437	    -13.14023755	     -3.69995026	     37.00604042	     50.47855598	      0.00000000	      0.00000000	      1.59546999	    -13.54237621	     -0.56852435	     43.17364878	     51.80499677	      0.00000000	      0.00000000
      2.67500000	     -2.45008909	     -3.00082333	      3.59253078	      0.78078339	      1.05465724	     -0.48275529	     17.88701626	      3.08437966	      0.79415359	     25.78703693	      0.45006870	      5.90098363	      0.00000000	      0.00000000	     16.34806918	     -4.65175959	      5.86164800	     65.15896149	      1.13723842	    -10.95175789	      0.00000000	      0.00000000	     -5.92304890	      4.30446511	     -7.30922265	    -10.85484346	    -13.28342045	     -3.62627761	     37.56305528	     50.40094532	      0.00000000	      0.00000000	      1.39446052	    -13.54221155	     -0.48922874	     42.57643624	     51.86797252	      0.00000000	      0.00000000
      2.68333300	     -2.39454687	     -2.79706171	      3.50098704	      0.78011496	      1.05613587	     -0.48213100	     17.07630053	      2.94036428	      0.72530495	     25.57855527	      0.44643001	      6.10762146	      0.00000000	      0.00000000	     17.62665380	     -4.39743872	      5.63919717	     65.52108386	      1.14355864	    -10.65849594	      0.00000000	      0.00000000	     -6.13510202	      4.03995842	     -6.99065179	    -10.34376130	    -13.44081866	     -3.60291040	     38.02479968	     50.35783071	      0.00000000	      0.00000000	      1.13223918	    -13.51371887	     -0.43266125	     42.11320651	     51.89717669	      0.00000000	      0.00000000
